<svg xmlns="http://www.w3.org/2000/svg" width="392.294" height="324.92" viewBox="0 0 392.294 324.92"><g transform="translate(-206.287 -70.844)"><path d="M291.994,54.169,392.294,0V85.244l-100.3,54.169ZM196.147,87.649,100.3,139.413,0,85.244V0L100.3,54.169l91.4-49.36V0l4.452,2.4L200.6,0V4.809l91.4,49.36v85.244Z" transform="translate(206.287 256.35)" fill="#316ce6"/><path d="M100.3,0,200.6,51.278,100.3,105.49,0,51.278Z" transform="translate(206.287 205.074)" fill="#08c1d1"/><path d="M100.3,0,200.6,51.278,100.3,105.49,0,51.278Z" transform="translate(397.981 205.074)" fill="#08c1d1"/><path d="M109.138-14.129,8.839,40.04Z" transform="translate(489.442 270.48)" fill="#316ce6"/><path d="M109.138-14.129,8.839,40.04Z" transform="translate(489.442 270.48)" fill="#316ce6"/><path d="M8.839-14.129l100.3,54.169v85.244L8.839,71.115Z" transform="translate(197.448 270.48)" fill="#316ce6"/><path d="M109.138-14.129,8.839,40.04Z" transform="translate(297.747 270.48)" fill="#316ce6"/><path d="M109.138-14.129,8.839,40.04Z" transform="translate(297.747 270.48)" fill="#316ce6"/><path d="M8.839-14.129l100.3,54.169v85.244L8.839,71.115Z" transform="translate(293.295 136.293)" fill="#316ce6"/><path d="M109.138-14.129,8.839,40.04Z" transform="translate(393.595 136.293)" fill="#316ce6"/><path d="M109.138-14.129,8.839,40.04Z" transform="translate(393.595 136.293)" fill="#316ce6"/><path d="M100.3,54.169,200.6,0V85.244L100.3,139.413ZM0,85.244V0L100.3,54.169v85.244Z" transform="translate(302.134 122.164)" fill="#316ce6"/><path d="M100.3,0,200.6,51.278,100.3,105.49,0,51.278Z" transform="translate(302.136 70.844)" fill="#08c1d1"/></g></svg>